<svg xmlns="http://www.w3.org/2000/svg" width="49.998" height="54.014" viewBox="0 0 49.998 54.014">
  <path id="Union_1" data-name="Union 1" d="M16.873,54.014A102.088,102.088,0,0,1,8.438,41.777,75.747,75.747,0,0,1,2.637,29.8,37.762,37.762,0,0,1,0,16.879,16.875,16.875,0,0,1,28.809,4.944a16.769,16.769,0,0,1,4.945,11.935,30.842,30.842,0,0,1-.621,5.942A17.008,17.008,0,0,0,21.28,48.093c-2.43,3.528-4.326,5.825-4.4,5.92ZM6.537,16.879A10.336,10.336,0,1,0,16.873,6.543,10.348,10.348,0,0,0,6.537,16.879ZM27.806,48.773A13,13,0,1,1,37,52.58,12.919,12.919,0,0,1,27.806,48.773Zm3.309-9.613V40a.842.842,0,0,0,.841.841h3.782v3.782a.842.842,0,0,0,.841.841h.84a.841.841,0,0,0,.841-.841V40.84H42.04A.841.841,0,0,0,42.881,40v-.84a.841.841,0,0,0-.841-.841H38.258V34.538a.841.841,0,0,0-.841-.841h-.84a.842.842,0,0,0-.841.841v3.782H31.955A.842.842,0,0,0,31.115,39.16ZM10.336,16.879a6.54,6.54,0,1,1,6.538,6.538A6.546,6.546,0,0,1,10.336,16.879Z" fill="#fff"/>
</svg>
