<svg xmlns="http://www.w3.org/2000/svg" width="38.398" height="38.408" viewBox="0 0 38.398 38.408">
  <path id="Icon_ionic-ios-settings" data-name="Icon ionic-ios-settings" d="M39.729,23.7a4.941,4.941,0,0,1,3.17-4.61,19.586,19.586,0,0,0-2.37-5.71,5.007,5.007,0,0,1-2.01.43,4.93,4.93,0,0,1-4.51-6.94,19.526,19.526,0,0,0-5.7-2.37,4.937,4.937,0,0,1-9.22,0,19.586,19.586,0,0,0-5.71,2.37,4.93,4.93,0,0,1-4.51,6.94,4.844,4.844,0,0,1-2.01-.43A20.019,20.019,0,0,0,4.5,19.1a4.94,4.94,0,0,1,.01,9.22,19.586,19.586,0,0,0,2.37,5.71,4.932,4.932,0,0,1,6.51,6.51,19.7,19.7,0,0,0,5.71,2.37,4.928,4.928,0,0,1,9.2,0,19.586,19.586,0,0,0,5.71-2.37,4.937,4.937,0,0,1,6.51-6.51,19.7,19.7,0,0,0,2.37-5.71A4.965,4.965,0,0,1,39.729,23.7Zm-15.939,7.99a8,8,0,1,1,8-8A8,8,0,0,1,23.789,31.689Z" transform="translate(-4.5 -4.5)" fill="#a0b6d2"/>
</svg>
