<svg xmlns="http://www.w3.org/2000/svg" width="481.951" height="108.143" viewBox="0 0 481.951 108.143">
  <g id="Middle_Disable" data-name="Middle Disable" transform="translate(18411.939 -14232)">
    <path id="Path_1411" data-name="Path 1411" d="M2.506,108.643c11.031-6.321,40.949-45.958,42.306-47.761l.04-.055.022-.064a19.194,19.194,0,0,0,0-12.384l-.022-.064-.04-.054C43.455,46.458,13.54,6.825,2.507.5H434.454c6.117,0,31.459,31.508,44.044,48.219a18.345,18.345,0,0,1,0,11.7c-12.585,16.711-37.927,48.219-44.044,48.219Z" transform="translate(-18409.445 14231.5)" fill="#fff"/>
    <path id="Path_1412" data-name="Path 1412" d="M2.506,108.643c11.031-6.321,40.949-45.958,42.306-47.761l.04-.055.022-.064a19.194,19.194,0,0,0,0-12.384l-.022-.064-.04-.054C43.455,46.458,13.54,6.825,2.507.5H434.454c6.117,0,31.459,31.508,44.044,48.219a18.345,18.345,0,0,1,0,11.7c-12.585,16.711-37.927,48.219-44.044,48.219Z" transform="translate(-18414.445 14231.5)" fill="#8da9ce"/>
  </g>
</svg>
