<svg xmlns="http://www.w3.org/2000/svg" xmlns:xlink="http://www.w3.org/1999/xlink" width="21.379" height="28.34" viewBox="0 0 21.379 28.34">
  <defs>
    <clipPath id="clip-path">
      <rect id="Rectangle_8" data-name="Rectangle 8" width="21.379" height="28.34" fill="#a0a5a8"/>
    </clipPath>
  </defs>
  <g id="Group_998" data-name="Group 998" transform="translate(-37)">
    <g id="Group_22" data-name="Group 22" transform="translate(37)" clip-path="url(#clip-path)">
      <path id="Path_19" data-name="Path 19" d="M10.751,0a5.394,5.394,0,0,0,.955,2.3c1.174,1.721,2.4,3.416,3.618,5.115,1.033,1.442,2.09,2.871,3.124,4.312a19.284,19.284,0,0,1,2,3.5,9.257,9.257,0,0,1,.631,6.323,8.454,8.454,0,0,1-3.284,4.562,11.087,11.087,0,0,1-4.31,1.949,13.783,13.783,0,0,1-3.186.273,11.228,11.228,0,0,1-4.609-.98c-2.991-1.4-4.9-3.5-5.519-6.418a8.742,8.742,0,0,1,.552-5.116A22.45,22.45,0,0,1,3.7,10.752C4.754,9.333,5.809,7.914,6.836,6.479,7.716,5.249,8.582,4.01,9.4,2.75A10.585,10.585,0,0,0,10.676.1a.579.579,0,0,1,.075-.1M9.373,26.022a1.04,1.04,0,0,0,1.114-.48c.3-.573-.178-1.095-.993-1.122A5.484,5.484,0,0,1,5.122,22.3,4.227,4.227,0,0,1,4.25,19.84a.845.845,0,0,0-.927-.846.854.854,0,0,0-.9.9A5.071,5.071,0,0,0,3.1,22.417a7.287,7.287,0,0,0,6.276,3.6" transform="translate(0 0.001)" fill="#a0a5a8"/>
    </g>
  </g>
</svg>
