<svg xmlns="http://www.w3.org/2000/svg" width="47.015" height="47" viewBox="0 0 47.015 47">
  <path id="Pump_M_R_Active" data-name="Pump M&amp;R Active" d="M4.38,41.922V41.3q0-19.2,0-38.4a5.016,5.016,0,0,1,.075-1.065A2.37,2.37,0,0,1,6.6.023C7.009,0,7.418.006,7.826.006Q17.849,0,27.873,0A2.6,2.6,0,0,1,30.01.869a2.691,2.691,0,0,1,.568,1.854q-.011,7.14,0,14.28v.612c.531.136,1.027.239,1.508.389a5.671,5.671,0,0,1,4.254,5.113c.173,1.581.1,3.189.136,4.785.027,1.154-.034,2.319.1,3.461a3.987,3.987,0,0,0,6.059,3.02,3.911,3.911,0,0,0,1.881-3.1,7.775,7.775,0,0,0,.068-1.119c.005-2.771,0-5.542.01-8.313A1.069,1.069,0,0,0,44.235,21c-1.205-1.175-2.4-2.357-3.577-3.563a1.274,1.274,0,0,1-.331-.79c-.03-1.648,0-3.3-.03-4.947a1.182,1.182,0,0,0-.31-.743c-1.319-1.326-2.663-2.626-4-3.93a1.343,1.343,0,0,1-.509-1.166,1.214,1.214,0,0,1,1.941-.814,2.955,2.955,0,0,1,.3.273q4.323,4.223,8.652,8.441a1.962,1.962,0,0,1,.645,1.528c-.016,4.93.018,9.86-.031,14.79a10.28,10.28,0,0,1-.487,3.1,5.586,5.586,0,0,1-4.84,4.04c-3.048.4-5.595-.656-6.882-3.45a8.439,8.439,0,0,1-.736-3.565c0-1.734.009-3.468-.005-5.2a11.818,11.818,0,0,0-.116-1.725,3.523,3.523,0,0,0-3.3-3.113V41.991h1.709c.323,0,.646-.007.969,0a1.609,1.609,0,0,1,1.661,1.683c.012.867,0,1.734,0,2.6,0,.664-.058.72-.738.72q-7.473,0-14.946,0H.856c-.832,0-.851-.019-.852-.865,0-.816-.011-1.632,0-2.448a1.615,1.615,0,0,1,1.7-1.693c.833-.013,1.666-.008,2.5-.013a.834.834,0,0,0,.169-.059M17.452,21.874h9.283c.733,0,.8-.061.8-.77q0-7.675,0-15.35c0-.666-.073-.74-.724-.741q-9.334,0-18.668,0c-.651,0-.725.076-.725.741q0,7.675,0,15.35c0,.69.077.768.753.768h9.283" transform="translate(0)" fill="#fff"/>
</svg>
