<svg id="Group_996" data-name="Group 996" xmlns="http://www.w3.org/2000/svg" xmlns:xlink="http://www.w3.org/1999/xlink" width="25.892" height="25.887" viewBox="0 0 25.892 25.887">
  <defs>
    <clipPath id="clip-path">
      <rect id="Rectangle_9" data-name="Rectangle 9" width="25.892" height="25.887" fill="#a0a5a8"/>
    </clipPath>
  </defs>
  <g id="Group_24" data-name="Group 24" clip-path="url(#clip-path)">
    <path id="Path_20" data-name="Path 20" d="M12.969,0A12.944,12.944,0,1,1,0,12.709,12.937,12.937,0,0,1,12.969,0M10.345,14.29c.468-.072.97-.115,1.456-.228a4.566,4.566,0,0,0,3.919-3.915c.029-.188.128-.218.293-.217.712.006,1.424,0,2.136,0h.3V8.658H15.727a4,4,0,0,0-1.4-2.564h4.125V4.866H7.838c0,.465.01.9,0,1.337-.007.218.07.287.283.283.515-.011,1.03-.005,1.545,0a5.415,5.415,0,0,1,2.521.5,2.424,2.424,0,0,1,1.331,1.694H7.861V9.943h5.734a1.89,1.89,0,0,1-.012.2,2.912,2.912,0,0,1-1.922,2.271,6.6,6.6,0,0,1-2.576.407c-.4,0-.8,0-1.243,0,0,.519-.007,1,.007,1.476A.483.483,0,0,0,8,14.541q2.934,3.37,5.877,6.73a.676.676,0,0,0,.435.207c.613.023,1.227.01,1.84.007.08,0,.16-.017.347-.038l-6.15-7.158" transform="translate(0 0)" fill="#a0a5a8"/>
  </g>
</svg>
