<svg xmlns="http://www.w3.org/2000/svg" width="58.717" height="51.963" viewBox="0 0 58.717 51.963">
  <g id="Group_9327" data-name="Group 9327" transform="translate(18.315 34.907)">
    <path id="Path_1309" data-name="Path 1309"
      d="M11.793,51.963c-2.675-.36-5.922-.718-9.139-1.254C.04,50.274-.538,49.09.461,46.64c2.216-5.435,4.4-10.882,6.706-16.282a3.589,3.589,0,0,0-.154-3.778c-1.146-1.651-.855-3.085.508-4.5a40.391,40.391,0,0,0,3.051-3.624c2.847-3.762,6.821-5.254,11.443-5.565a4.706,4.706,0,0,0,2.028-.653c1.333-.8,2.374-2.152,4.252-1.818.292.052.685-.351,1.011-.572,10.65-7.217,6.628-5.4,20.417-8.368C51.96.994,54.222.61,56.448.083c1.534-.363,1.961.521,2.2,1.641.247,1.16-.136,1.859-1.491,2.118-4.217.807-8.4,1.782-12.618,2.583a11.836,11.836,0,0,0-6.79,3.642,7.88,7.88,0,0,1-1.44,1.433c-2.675,1.7-3.072,4.534-3.729,7.174a6.344,6.344,0,0,0,.316,3.26A11.129,11.129,0,0,1,31.8,31.585c-.223.364-.558.855-.462,1.182.595,2.03-.312,3.7-1.175,5.414-1.035,2.05-2.2,4.056-3.027,6.183-1.851,4.729-5.725,6.578-10.469,7.265-1.413.2-2.859.2-4.879.334m6.392-5.946-.608.053a11.163,11.163,0,0,1-.7-1.766c-.34-1.579-.492-3.2-.9-4.759-.738-2.806-.483-5.209,2.6-6.716-2.987-.971-3.022-.988-4.243,1.428-1.665,3.3-3.274,6.619-4.894,9.936-.476.975-.908,1.971-1.438,3.126a81.967,81.967,0,0,0,8.814-.068,8.129,8.129,0,0,0,6.74-4.339A39.141,39.141,0,0,0,26,37.221a3.838,3.838,0,0,0-.54-2.69,1.885,1.885,0,0,0-2.558-.667c-1.1.468-2.261.792-3.331,1.305a2.788,2.788,0,0,0-1.7,3.147c.253,1.987.365,3.993.485,5.994a10.062,10.062,0,0,1-.18,1.707"
      transform="translate(-18.315 -34.907)" fill="#B25A0C" />
  </g>
</svg>