<svg xmlns="http://www.w3.org/2000/svg" width="64" height="64" viewBox="0 0 64 64">
  <g id="Group_9425" data-name="Group 9425" transform="translate(1.211 0.211)">
    <circle id="Ellipse_60" data-name="Ellipse 60" cx="32" cy="32" r="32" transform="translate(-1.211 -0.211)" fill="#007cc5"/>
    <path id="Path_1175" data-name="Path 1175" d="M256,359.88V385.1h25.764l25.213-25.218Zm6.931,4.69h.012a13.52,13.52,0,0,1,5.683,1.344l-1.741,3.037a8.212,8.212,0,0,0-3.674-.991c-1.5-.083-2.26.457-2.271,1.036-.015.706,1.42,1.345,2.773,1.78,2.047.651,4.65,1.519,5.048,4.037l3.742-9.894h4.348l4.383,11.846-.017-11.842h5.037c4.794,0,7.046,1.623,7.046,5.349,0,3.345-2.321,5.34-6.237,5.34h-1.621l-.016,4.45-7.626-.007-.529-1.929a8.431,8.431,0,0,1-2.616.4,8.332,8.332,0,0,1-2.679-.424l-.762,1.951-4.248.013.191-.981c-.061.053-.119.107-.184.158a6.848,6.848,0,0,1-4.325,1.367h-.454a10.785,10.785,0,0,1-5.481-1.432l1.551-3.077a6.919,6.919,0,0,0,4.154,1.186,2.212,2.212,0,0,0,1.618-.508,1.184,1.184,0,0,0,.332-.783c.014-.8-1.124-1.175-2.516-1.606a11.8,11.8,0,0,1-3.413-1.561,3.93,3.93,0,0,1-1.722-3.5,4.227,4.227,0,0,1,1.2-2.927,6.9,6.9,0,0,1,5.018-1.834Zm22.509,3.548v4.045h1.107c1.474,0,2.652-.491,2.652-2.049,0-1.505-1.176-2-2.652-2Zm-10.8,1.629-1.589,5.018a4.553,4.553,0,0,0,1.606.281,4.709,4.709,0,0,0,1.575-.267l-1.564-5.032Z" transform="translate(-247.488 -340.7)" fill="#fff"/>
  </g>
</svg>
