<svg xmlns="http://www.w3.org/2000/svg" width="60.883" height="64.83" viewBox="0 0 60.883 64.83">
  <g id="Group_9426" data-name="Group 9426" transform="translate(-293.419 -225.495)">
    <path id="Icon_ionic-ios-settings" data-name="Icon ionic-ios-settings" d="M46.372,27.32a5.873,5.873,0,0,1,3.768-5.479,23.28,23.28,0,0,0-2.817-6.787,5.952,5.952,0,0,1-2.389.511,5.86,5.86,0,0,1-5.36-8.249A23.209,23.209,0,0,0,32.8,4.5a5.868,5.868,0,0,1-10.958,0,23.279,23.279,0,0,0-6.787,2.817,5.86,5.86,0,0,1-5.36,8.249A5.758,5.758,0,0,1,7.3,15.054a23.794,23.794,0,0,0-2.8,6.8,5.871,5.871,0,0,1,.012,10.958A23.28,23.28,0,0,0,7.329,39.6a5.862,5.862,0,0,1,7.737,7.737,23.415,23.415,0,0,0,6.787,2.817,5.857,5.857,0,0,1,10.935,0,23.279,23.279,0,0,0,6.787-2.817A5.868,5.868,0,0,1,47.311,39.6a23.416,23.416,0,0,0,2.817-6.787A5.9,5.9,0,0,1,46.372,27.32Zm-18.945,9.5a9.508,9.508,0,1,1,9.508-9.508A9.506,9.506,0,0,1,27.427,36.817Z" transform="translate(288.919 220.995)" fill="#c55500"/>
    <path id="Icon_ionic-ios-settings-2" data-name="Icon ionic-ios-settings" d="M22.835,12.445A3.2,3.2,0,0,1,24.89,9.457a12.7,12.7,0,0,0-1.536-3.7,3.246,3.246,0,0,1-1.3.279,3.2,3.2,0,0,1-2.923-4.5A12.657,12.657,0,0,0,15.433,0a3.206,3.206,0,0,1-2.988,2.055A3.206,3.206,0,0,1,9.457,0a12.7,12.7,0,0,0-3.7,1.536,3.2,3.2,0,0,1-2.923,4.5,3.14,3.14,0,0,1-1.3-.279A12.976,12.976,0,0,0,0,9.463a3.2,3.2,0,0,1,2.055,2.988A3.206,3.206,0,0,1,.006,15.439a12.7,12.7,0,0,0,1.536,3.7,3.2,3.2,0,0,1,4.22,4.22,12.769,12.769,0,0,0,3.7,1.536,3.194,3.194,0,0,1,5.963,0,12.7,12.7,0,0,0,3.7-1.536,3.2,3.2,0,0,1,4.22-4.22,12.769,12.769,0,0,0,1.536-3.7A3.218,3.218,0,0,1,22.835,12.445ZM12.5,17.624a5.185,5.185,0,1,1,5.185-5.185A5.184,5.184,0,0,1,12.5,17.624Z" transform="matrix(0.966, -0.259, 0.259, 0.966, 323.816, 266.277)" fill="#c55500"/>
  </g>
</svg>
