
<svg xmlns="http://www.w3.org/2000/svg" xmlns:xlink="http://www.w3.org/1999/xlink" width="75.739" height="45.977" viewBox="0 0 75.739 45.977">
  <defs>
    <clipPath id="clip-path">
      <rect id="Rectangle_15" data-name="Rectangle 15" width="75.739" height="45.977" transform="translate(8.303)" fill="#0784bd"/>
    </clipPath>
  </defs>
  <g id="Group_24" data-name="Group 24" transform="translate(-8.303)" clip-path="url(#clip-path)">
    <path id="Path_1" data-name="Path 1" d="M75.691,36.81A31.482,31.482,0,0,0,72.6,24.091c-1.489-2.863-3.428-4.712-6.344-4.551H46.8v.044q-18.746.061-37.486-.013A6.007,6.007,0,0,0,3.975,22.69,25.3,25.3,0,0,0,.3,34.449a10.407,10.407,0,0,0-.265,2.708c0,.552.006,1.1.009,1.654.006.576.014,1.152.02,1.725a5.474,5.474,0,0,0,.057,1.95,23.353,23.353,0,0,0,1.025,6.1A3.761,3.761,0,0,0,1.68,50.65a3.563,3.563,0,0,0,.6,1.647c1.694,4.608,4.052,6.656,7.9,6.625q27.638-.222,55.282.007c3.9.037,6.446-1.991,8.226-7.286a9.627,9.627,0,0,0,.948-3.008,31.38,31.38,0,0,0,1.008-6.07c.014-.243.031-.482.046-.724.009-1.677.108-3.365,0-5.032M34,24.283H23.2q-5.33,0-10.661,0c-.606,0-1.367.131-1.409-.9-.051-1.206.789-1.027,1.432-1.027q10.729-.01,21.461,0c.663,0,1.52-.115,1.509.97-.014,1.058-.863.963-1.529.963M62.983,20c-.088-.259-.02-.377.219-.35-.074.115-.145.232-.219.35" transform="translate(8.303 -12.952)" fill="#0784bd"/>
    <path id="Path_2" data-name="Path 2" d="M111.966,4.716c-2.364,0-4.729-.031-7.093.018-.738.015-1.059-.1-1.065-1.137-.022-3.57-.063-3.57,2.987-3.57,4.114,0,8.228.035,12.341-.026.94-.014,1.3.17,1.283,1.418-.054,3.3,0,3.3-2.779,3.3h-5.674" transform="translate(-74.247 0)" fill="#0784bd"/>
  </g>
</svg>
