<svg id="Group_9324" data-name="Group 9324" xmlns="http://www.w3.org/2000/svg" xmlns:xlink="http://www.w3.org/1999/xlink" width="62.714" height="62.75" viewBox="0 0 62.714 62.75">
  <defs>
    <clipPath id="clip-path">
      <rect id="Rectangle_4852" data-name="Rectangle 4852" width="62.714" height="62.75" fill="none"/>
    </clipPath>
  </defs>
  <g id="Group_9323" data-name="Group 9323" clip-path="url(#clip-path)">
    <path id="Path_1178" data-name="Path 1178" d="M60.746,20.624c.239.708.522,1.4.706,2.125.33,1.293.642,2.593.881,3.9a24.273,24.273,0,0,1,.25,2.627c.063.881.152,1.766.128,2.647a27.223,27.223,0,0,1-.267,2.83q-.248,1.866-.576,3.722a15.487,15.487,0,0,1-.446,1.589,30.341,30.341,0,0,1-2.736,6.552,31.676,31.676,0,0,1-6.268,7.927,32.269,32.269,0,0,1-8.187,5.363,31,31,0,0,1-6.467,2.126c-.99.213-2.007.3-3.012.439-.147.021-.294.04-.441.059.031-.22-.073-.283-.281-.275-.337.013-.676.019-1.012,0-.311-.018-.459.109-.464.415-.44.027-.88.074-1.32.076-.333,0-.666-.053-1-.083.092-.277-.049-.393-.3-.4-.349-.011-.7.007-1.046-.007-.255-.01-.374.083-.343.344-.538-.067-1.08-.108-1.612-.206-1.052-.193-2.107-.383-3.145-.636a30.537,30.537,0,0,1-7.048-2.7,30.8,30.8,0,0,1-7.326-5.341,29.593,29.593,0,0,1-5.728-7.728,38.881,38.881,0,0,1-1.948-4.477A43.644,43.644,0,0,1,.5,36.953a20.349,20.349,0,0,1-.3-2.331c-.073-.63-.133-1.263-.2-1.894l.017-.222,0-.337v-.088q-.006-.274-.013-.548v-.153L.019,30.9c0-.029,0-.058,0-.087s0-.084,0-.125v-.155c0-.042,0-.084,0-.127s0-.1.007-.154c.04-.669.053-1.34.126-2,.083-.756.2-1.51.334-2.26.147-.829.287-1.662.5-2.474.246-.926.539-1.844.872-2.743a32.344,32.344,0,0,1,3.655-7.128A31.522,31.522,0,0,1,14.73,4.814,30.022,30.022,0,0,1,24.519.8c1.15-.249,2.322-.392,3.486-.575a23.285,23.285,0,0,1,4.6-.2,29.6,29.6,0,0,1,3.03.339c1.115.164,2.233.331,3.328.587.994.233,1.965.573,2.937.892a22.123,22.123,0,0,1,4.086,1.811c-.007.388.348.47.576.628.338.235.741.374,1.086.6.676.443,1.336.911,1.993,1.382.588.421,1.178.842,1.738,1.3.438.358.836.766,1.243,1.161.746.728,1.5,1.449,2.221,2.2a12.45,12.45,0,0,1,.861,1.125c.374.493.748.988,1.128,1.477a.719.719,0,0,0,.193.125c.108.2.214.393.323.588a2.978,2.978,0,0,0,.3.5c.223.259.478.491.719.734h0a8.963,8.963,0,0,0,.321.992,10.171,10.171,0,0,1,.571,1.067A9.381,9.381,0,0,0,60.1,19.2a.632.632,0,0,1,.091.284,1.525,1.525,0,0,0,.556,1.139M8.207,47.423l.007.012.069.129a.052.052,0,0,1,.011.052,4.863,4.863,0,0,0,.485,1.047c.61.774,1.261,1.519,1.931,2.242.519.56,1.08,1.084,1.645,1.6.5.453,1,.894,1.538,1.3.691.526,1.406,1.023,2.124,1.511.391.266.808.5,1.222.727.534.3,1.065.605,1.618.863q1.109.518,2.251.961c.583.227,1.128.635,1.816.458a.3.3,0,0,1,.07,0,28.569,28.569,0,0,0,5.3,1.055c.971.076,1.942.181,2.914.2a22.986,22.986,0,0,0,2.367-.136c.911-.079,1.829-.133,2.726-.3a28.5,28.5,0,0,0,4.6-1.237,27.79,27.79,0,0,0,9.984-6.242A28.13,28.13,0,0,0,58.469,39a28.8,28.8,0,0,0,1.015-6.025,25.427,25.427,0,0,0,0-2.718c-.035-.88-.112-1.76-.21-2.635a18.092,18.092,0,0,0-.827-4c-.485-1.382-.906-2.8-1.517-4.121A28.576,28.576,0,0,0,39.5,4.362a27.156,27.156,0,0,0-2.774-.613c-.894-.17-1.8-.293-2.7-.437.029-.32-.118-.419-.434-.416-1.459.014-2.917.011-4.376,0a.567.567,0,0,0-.6.414c-.713.079-1.437.1-2.137.247a32.509,32.509,0,0,0-4.764,1.295,27.433,27.433,0,0,0-8.2,4.708,32.465,32.465,0,0,0-3.782,3.761,27.022,27.022,0,0,0-4.9,8.407c-.335.918-.608,1.862-.855,2.809-.185.71-.246,1.452-.427,2.162a16.508,16.508,0,0,0-.383,3.506,22.038,22.038,0,0,0,.2,4.5c.148.876.239,1.763.422,2.631.195.921.469,1.826.709,2.737.021.28.024.564.07.84a2.188,2.188,0,0,0,.185.437c.119.291.225.587.358.872.031.067.147.094.224.139H5.4a.03.03,0,0,1,.014.043L5.4,42.64c-.192.286-.01.432.21.565a2.007,2.007,0,0,0,.084.365,6.761,6.761,0,0,0,.5,1.05c.156.239.241.6.627.617l0,0a6.2,6.2,0,0,0,.261.953,3.424,3.424,0,0,0,.52.772c.143.172.248.435.553.389h0l.058.073" transform="translate(0 -0.001)" fill="#47a942"/>
    <path id="Path_1179" data-name="Path 1179" d="M173.786,22.954a.705.705,0,0,1-.193-.125c-.38-.489-.753-.983-1.128-1.477a12.494,12.494,0,0,0-.861-1.125c-.721-.753-1.475-1.475-2.221-2.2-.406-.4-.8-.8-1.243-1.161-.56-.457-1.15-.878-1.738-1.3-.657-.471-1.317-.938-1.993-1.382-.345-.226-.748-.366-1.086-.6-.227-.159-.583-.24-.576-.628a26.554,26.554,0,0,1,4.88,3.178c1.207,1.04,2.39,2.117,3.492,3.266.868.9,1.6,1.94,2.386,2.917l.062.08,0,.006.086.127-.007-.007.066.082.078.108c0,.082-.007.163-.01.245" transform="translate(-116.758 -9.292)" fill="#43a13e"/>
    <path id="Path_1180" data-name="Path 1180" d="M208.919,59.944a1.524,1.524,0,0,1-.556-1.139.638.638,0,0,0-.091-.283,9.4,9.4,0,0,1-.84-1.654,10.193,10.193,0,0,0-.571-1.066,8.931,8.931,0,0,1-.322-.992c.536,1.031,1.087,2.055,1.6,3.1.262.529.464,1.088.684,1.637a2.581,2.581,0,0,1,.093.4" transform="translate(-148.174 -39.321)" fill="#3f9b3b"/>
    <path id="Path_1181" data-name="Path 1181" d="M101,220.661c-.031-.26.088-.354.343-.344.348.014.7,0,1.046.007.251.008.392.123.3.4l-1.69-.064" transform="translate(-72.453 -158.057)" fill="#3ba634"/>
    <path id="Path_1182" data-name="Path 1182" d="M115.2,220.727c.005-.305.153-.432.464-.415.336.019.675.014,1.012,0,.208-.008.312.056.28.275l-1.756.139" transform="translate(-82.644 -158.054)" fill="#37a431"/>
    <path id="Path_1183" data-name="Path 1183" d="M201.808,47.725c0-.082.006-.163.01-.245l1.329,2.073c-.241-.243-.5-.476-.719-.734a2.951,2.951,0,0,1-.3-.5c-.109-.2-.216-.392-.324-.588" transform="translate(-144.779 -34.063)" fill="#3f9b3b"/>
    <path id="Path_1184" data-name="Path 1184" d="M.017,115.026,0,115.248l.017-.222" transform="translate(0 -82.521)" fill="#90cc8e"/>
    <path id="Path_1185" data-name="Path 1185" d="M.06,108.055v0" transform="translate(-0.043 -77.52)" fill="#90cc8e"/>
    <path id="Path_1186" data-name="Path 1186" d="M.019,111.045v0" transform="translate(-0.014 -79.665)" fill="#90cc8e"/>
    <path id="Path_1187" data-name="Path 1187" d="M.068,107.061c0,.051,0,.1-.007.154,0-.051.005-.1.007-.154" transform="translate(-0.044 -76.807)" fill="#90cc8e"/>
    <path id="Path_1188" data-name="Path 1188" d="M201.136,46.509l-.086-.127.086.127" transform="translate(-144.235 -33.275)" fill="#3f9b3b"/>
    <path id="Path_1189" data-name="Path 1189" d="M.067,113.525v0" transform="translate(-0.047 -81.444)" fill="#90cc8e"/>
    <path id="Path_1190" data-name="Path 1190" d="M200.881,46.158l-.061-.08.061.08" transform="translate(-144.07 -33.057)" fill="#3f9b3b"/>
    <path id="Path_1191" data-name="Path 1191" d="M201.4,46.891l-.066-.081.066.081" transform="translate(-144.438 -33.582)" fill="#3f9b3b"/>
    <path id="Path_1192" data-name="Path 1192" d="M.067,109.045c0,.029,0,.058,0,.087,0-.029,0-.058,0-.087" transform="translate(-0.048 -78.23)" fill="#90cc8e"/>
    <path id="Path_1193" data-name="Path 1193" d="M29.347,168.495c.4.516.777,1.057,1.215,1.541.81.9,1.628,1.789,2.494,2.631a27.9,27.9,0,0,0,9.339,5.91l1.582.625c-.688.177-1.233-.231-1.816-.458-.76-.3-1.512-.615-2.251-.96-.553-.258-1.084-.565-1.618-.864-.414-.231-.83-.461-1.221-.727-.719-.488-1.433-.985-2.124-1.511-.534-.406-1.042-.847-1.538-1.3-.564-.516-1.126-1.039-1.645-1.6-.67-.723-1.321-1.468-1.931-2.243a4.857,4.857,0,0,1-.485-1.047" transform="translate(-21.054 -120.88)" fill="#41a03a"/>
    <path id="Path_1194" data-name="Path 1194" d="M106.673,10.661c-.773-.043-1.547-.123-2.32-.119-1.031.005-2.062.076-3.093.118a.567.567,0,0,1,.6-.414c1.458.009,2.917.012,4.376,0,.316,0,.463.1.434.416" transform="translate(-72.645 -7.35)" fill="#33a42d"/>
    <path id="Path_1195" data-name="Path 1195" d="M19.875,151.853l1.192,2.325c-.385-.022-.471-.379-.627-.618a6.718,6.718,0,0,1-.495-1.05,2,2,0,0,1-.084-.365c0-.1.009-.195.014-.292" transform="translate(-14.248 -108.941)" fill="#43a13e"/>
    <path id="Path_1196" data-name="Path 1196" d="M24.117,160.07l1.334,2.115c-.306.046-.41-.217-.553-.389a3.424,3.424,0,0,1-.52-.772,6.2,6.2,0,0,1-.261-.953" transform="translate(-17.302 -114.836)" fill="#43a13e"/>
    <path id="Path_1197" data-name="Path 1197" d="M15.911,141.8l.836,2.173v.114c-.077-.045-.193-.072-.224-.139-.133-.284-.239-.581-.358-.872a2.179,2.179,0,0,1-.185-.437c-.045-.276-.049-.56-.07-.84" transform="translate(-11.415 -101.727)" fill="#41a03a"/>
    <path id="Path_1198" data-name="Path 1198" d="M19.136,151.154c0,.1-.009.195-.014.292-.22-.133-.4-.279-.21-.565l.08,0,.062.073.083.207Z" transform="translate(-13.51 -108.242)" fill="#41a03a"/>
    <path id="Path_1199" data-name="Path 1199" d="M19.2,150.284l-.08,0,.008-.237.071.234" transform="translate(-13.715 -107.647)" fill="#43a13e"/>
    <path id="Path_1200" data-name="Path 1200" d="M18.87,149.6c0-.038,0-.076,0-.114l.065.115H18.87" transform="translate(-13.537 -107.246)" fill="#43a13e"/>
    <path id="Path_1201" data-name="Path 1201" d="M29.066,167.856l.069.129-.069-.129" transform="translate(-20.852 -120.422)" fill="#43a13e"/>
    <path id="Path_1202" data-name="Path 1202" d="M28.837,167.555l.058.073-.058-.073" transform="translate(-20.688 -120.206)" fill="#43a13e"/>
    <path id="Path_1203" data-name="Path 1203" d="M92.615,47.2c0-.069,0-.138,0-.207.008-.007.023-.016.022-.021a.317.317,0,0,0-.022-.053q0-.1,0-.207c.008-.007.023-.016.022-.021a.292.292,0,0,0-.021-.053c0-.07,0-.14,0-.209q.015-.192.029-.383c0-1.289,0-2.577-.015-3.866,0-.231.056-.336.313-.332.879.014,1.759-.019,2.636.019a1.621,1.621,0,0,1,1.517.746,2.911,2.911,0,0,1,.275.847,5.433,5.433,0,0,1,.072.968c.008,5.074,0,10.148.031,15.222a8.182,8.182,0,0,0,.33,1.605,1.733,1.733,0,0,0,.015.675,5.48,5.48,0,0,0,.651,1,3.578,3.578,0,0,0,1.354,1.086c.4.182.8.542,1.287.2a4.721,4.721,0,0,0,2.248-.186,4.036,4.036,0,0,0,2.72-2.746,15.112,15.112,0,0,0,.388-1.776c.068-.009.185,0,.2-.029a1.665,1.665,0,0,0,.133-.532c-.014-2.295-.044-4.589-.063-6.884-.008-.914,0-1.829,0-2.743,0-2.251,0-4.5-.008-6.752a1.6,1.6,0,0,0-.191-.5c0-1.957-.018-3.913-.007-5.87a1.7,1.7,0,0,0-.937-1.621c-2.267-1.289-4.533-2.583-6.772-3.92a1.384,1.384,0,0,0-2.19.591,1.232,1.232,0,0,0,.5,1.566c.8.51,1.629.966,2.446,1.445.04.024.082.046.123.068.736.41.7.4.4,1.2a3.811,3.811,0,0,0,.084,2.919,4.268,4.268,0,0,0,2.787,2.577,3.447,3.447,0,0,0,.6.122c.264.031.407.107.4.43-.018,2.835-.012,5.67-.021,8.506-.009,3-.02,6-.047,9a3.489,3.489,0,0,1-.192,1.087,1.727,1.727,0,0,1-1.8,1.372,1.888,1.888,0,0,1-1.786-1.554,3.4,3.4,0,0,1-.078-.756c-.005-5.074,0-10.147-.011-15.221a4.632,4.632,0,0,0-2.027-4.134,9.688,9.688,0,0,0-1.623-.7c.025-.3-.121-.416-.414-.413-1.1.006-2.208,0-3.312,0q-.012-2.811-.023-5.622c0-1.336,0-2.671-.005-4.006l-.032-.3A2.858,2.858,0,0,0,90,26.3l-.153-.008-8.566-.008-.363.018-.034.006-.033-.01c-.195-.294-.33-.578.033-.86.05-.038.025-.174.034-.264,1.116-.324,2.224-.678,3.35-.963a13.946,13.946,0,0,1,3.407-.437c.769,0,1.539-.091,2.305-.057a26.021,26.021,0,0,1,3.73.39A27.247,27.247,0,0,1,99.6,25.954a22.872,22.872,0,0,1,5.728,3.7,24.912,24.912,0,0,1,3.762,4.062,2.051,2.051,0,0,1,.107.178,5.9,5.9,0,0,0,.55,1.188,6.438,6.438,0,0,1,.707,1.164,6.317,6.317,0,0,0,.847,1.112l.014.012-.007.018c-.128.5.2.876.377,1.285.067.151.252.25.383.372a.031.031,0,0,1,.015.044l.049.094a27.3,27.3,0,0,1,1.727,7.731c0,.029,0,.058,0,.087l-.024.2c-.1.123-.266.242-.273.37a16.475,16.475,0,0,0,0,1.72c.007.129.176.248.271.372-.051.647-.056,1.3-.164,1.94-.165.975-.393,1.939-.609,2.9a21.417,21.417,0,0,1-1.876,5.041,24.922,24.922,0,0,1-3.242,4.91A24.63,24.63,0,0,1,100.7,70.2a25.64,25.64,0,0,1-7.151,2.47c-.347.068-.693.142-1.073.219v-7.87c0-.032.008-.064.012-.1,0-.068.007-.136.01-.2,0-.049,0-.1,0-.148s0-.089,0-.133,0-.1,0-.148v-1.54c0-.049,0-.1,0-.148v-.133c0-.049,0-.1,0-.148s0-.089,0-.133v-.43c0-.044,0-.089,0-.133v-.148l.009-.977c0-.026,0-.051,0-.077l.021-.278a1.314,1.314,0,0,0,.056-.266q.006-1.721,0-3.441a1.119,1.119,0,0,0-.05-.233q0-.141,0-.281c.014-.1.028-.2.042-.294l-.025-.132q.011-2.108.023-4.217c0-.211.017-.421.026-.632q0-.177.007-.353c0-.07,0-.139,0-.209.008-.007.023-.016.022-.021a.291.291,0,0,0-.021-.053V49.8c.008-.007.023-.016.022-.021a.321.321,0,0,0-.021-.053v-.207c.008-.007.023-.016.022-.021a.315.315,0,0,0-.022-.053v-.207c.008-.007.023-.016.022-.021a.292.292,0,0,0-.021-.053c0-.069,0-.138,0-.207.008-.007.023-.016.022-.021a.3.3,0,0,0-.022-.053v-.207c.008-.007.023-.016.022-.021a.273.273,0,0,0-.022-.053V48.4c.008-.007.023-.016.022-.021a.3.3,0,0,0-.022-.053v-.207c.008-.007.023-.016.022-.021a.273.273,0,0,0-.022-.053v-.207c.008-.007.023-.016.022-.021a.274.274,0,0,0-.022-.053v-.207c.008-.007.023-.016.022-.021a.274.274,0,0,0-.022-.053q0-.1,0-.207c.008-.007.023-.016.022-.021a.315.315,0,0,0-.022-.053" transform="translate(-57.861 -17.01)" fill="#46a941"/>
    <path id="Path_1204" data-name="Path 1204" d="M31.266,81.83v3.894l-.073.073c-.22-.246-.443-.489-.661-.737a26.378,26.378,0,0,1-3.55-4.742c-.654-1.208-1.251-2.451-1.795-3.712a18.066,18.066,0,0,1-1.22-4.358c-.149-.943-.285-1.889-.421-2.834a1.708,1.708,0,0,1,.012-.315c0-.047.008-.094.011-.141a27.242,27.242,0,0,1-.009-2.874A25.022,25.022,0,0,1,28.941,52.4c.452-.549.946-1.063,1.42-1.593a.571.571,0,0,1,.3.549,5.281,5.281,0,0,0-.009.544c0,1.9-.013,3.792.015,5.687,0,.233,0,.567.316.705.007.937.014,1.874.023,2.811,0,.175.017.351.026.526l.019.235c.01,1.253.018,2.507.031,3.76q.037,3.39.079,6.78c0,.027,0,.054,0,.081l.028.2c-.006.009-.019.02-.018.027a.363.363,0,0,0,.024.059q0,2.069,0,4.137c-.09.116-.256.232-.258.349-.018,1.406-.011,2.813-.011,4.22,0,.226.1.354.337.352" transform="translate(-16.874 -36.449)" fill="#46aa42"/>
    <path id="Path_1205" data-name="Path 1205" d="M74.375,45.015a6.7,6.7,0,0,1,.214,1.176c.018,3.05.011,6.1.006,9.15a2.474,2.474,0,0,1-.078.438c-.166.2-.341.386-.5.592a5.716,5.716,0,0,1-.543.751,1.513,1.513,0,0,1-.6.222,2.753,2.753,0,0,1-.727.186c-2.073.015-4.146.01-6.22.005a2.223,2.223,0,0,1-.551-.074.961.961,0,0,1-.265-.18A2.119,2.119,0,0,1,65.35,57a2.81,2.81,0,0,1,.368-.251c.076-.047.177-.134.238-.114.518.17.831-.279,1.239-.42a11.206,11.206,0,0,0,1.477-.777,1.426,1.426,0,0,0,.727-.619c.081-.167.3-.267.456-.4.122-.1.329-.194.35-.316.084-.5.513-.773.7-1.2a8.9,8.9,0,0,0,.651-1.519,15.138,15.138,0,0,0,.165-2.03,6.08,6.08,0,0,0-.32-1.6,6.126,6.126,0,0,0-.676-1.929c-.131-.231-.345-.513-.3-.726.1-.463-.261-.548-.52-.87-.142.31-.355.559-.341.8a.931.931,0,0,1-.446.835,12.194,12.194,0,0,1-1.79,1.039c-.369.176-.823.17-1.2.333-.676.29-1.326.64-1.981.978a1.913,1.913,0,0,0-.508.363,9.269,9.269,0,0,0-.672.827c-.024.032.041.131.065.2l-.117.126c-.1.016-.24,0-.307.054a3.678,3.678,0,0,0-.534.569,8.228,8.228,0,0,0-.638.988,4.819,4.819,0,0,0-.35.907,4.768,4.768,0,0,0-.112.718c-.022.167-.025.336-.053.5-.075.443-.18.882-.228,1.327a.678.678,0,0,0,.146.518c.3.253.338.614.5.92.19.35.292.821.873.766.118-.011.252.148.4.245a1.3,1.3,0,0,1-.163.143.683.683,0,0,1-.194.077,3.529,3.529,0,0,1-2.758-.432c-.118-.081-.277-.18-.307-.3a6.082,6.082,0,0,1-.264-1.4c-.024-2.824,0-5.649-.023-8.474a2.823,2.823,0,0,1,.306-1.572,3.754,3.754,0,0,1,.563-.818,2.8,2.8,0,0,1,.76-.365H72.7a.977.977,0,0,1,.776.228c.277.253.6.459.9.685" transform="translate(-42.258 -31.637)" fill="#47aa42"/>
    <path id="Path_1206" data-name="Path 1206" d="M59.891,43.416a2.8,2.8,0,0,0-.76.365,3.744,3.744,0,0,0-.563.818,2.819,2.819,0,0,0-.306,1.572c.023,2.824,0,5.649.023,8.474a6.082,6.082,0,0,0,.264,1.4c.03.118.189.217.307.3a3.532,3.532,0,0,0,2.758.432.675.675,0,0,0,.194-.078,1.251,1.251,0,0,0,.163-.143c-.153-.1-.287-.256-.4-.244-.58.055-.682-.417-.873-.766-.166-.306-.208-.666-.5-.92a.679.679,0,0,1-.147-.518c.048-.445.153-.885.228-1.327.028-.166.031-.335.053-.5a3.992,3.992,0,0,1,.462-1.625,8.228,8.228,0,0,1,.638-.988,3.639,3.639,0,0,1,.534-.569c.066-.058.2-.038.307-.054l-.2.214L62,49.327a5.643,5.643,0,0,0-1.253,2.5,9.3,9.3,0,0,0-.26,2.763A14.225,14.225,0,0,1,62.107,53a24,24,0,0,1,2.4-1.37c1.217-.672,2.417-1.354,2.776-2.863.084-.351.4-.32.659-.278.294.048.335.338.3.549a2.92,2.92,0,0,1-.574,1.473,7.4,7.4,0,0,1-2.495,1.953c-.8.4-1.6.827-2.36,1.3a5.735,5.735,0,0,0-1.586,1.761l-.192-.026.107.159c.05.045.1.121.151.129a10.719,10.719,0,0,0,1.13.147,8.8,8.8,0,0,0,2.757-.278,7.268,7.268,0,0,0,4.372-3.184,6.625,6.625,0,0,0,.974-3.009,7.591,7.591,0,0,0-.362-3.064c-.216-.671-.463-1.331-.7-2,.007-.009.019-.024.018-.025a.421.421,0,0,0-.043-.038l0,0-.052-.078c-.2-.151-.194.031-.235.14-.008.006-.023.012-.023.017a.241.241,0,0,0,.013.049,2.629,2.629,0,0,1-1.272,1.525,11.576,11.576,0,0,1-1.873.84,8.127,8.127,0,0,0-3.626,2.081c-.024-.068-.089-.166-.065-.2a9.315,9.315,0,0,1,.671-.827,1.91,1.91,0,0,1,.509-.363c.654-.338,1.3-.688,1.981-.978.379-.162.832-.157,1.2-.333a12.192,12.192,0,0,0,1.79-1.039.931.931,0,0,0,.446-.835c-.014-.236.2-.485.341-.8.259.322.615.407.52.87-.044.213.17.495.3.726a6.133,6.133,0,0,1,.676,1.929,6.078,6.078,0,0,1,.32,1.6,15.092,15.092,0,0,1-.165,2.03,8.863,8.863,0,0,1-.65,1.518c-.182.428-.611.706-.7,1.2-.021.122-.227.212-.35.316-.156.131-.375.231-.456.4a1.424,1.424,0,0,1-.727.62,11.24,11.24,0,0,1-1.477.777c-.408.141-.721.59-1.239.42-.061-.02-.162.067-.238.114a2.848,2.848,0,0,0-.368.251,2.155,2.155,0,0,0-.234.279.955.955,0,0,0,.264.181,2.227,2.227,0,0,0,.551.074c2.073,0,4.146.009,6.22-.005a2.759,2.759,0,0,0,.727-.186,1.513,1.513,0,0,0,.6-.222,5.727,5.727,0,0,0,.543-.751c.155-.205.329-.4.5-.591a1.944,1.944,0,0,1-1.985,2.022c-1.653-.02-3.305-.005-4.958-.006q-1.442,0-2.883-.006H59.9l-.1-.008a1.928,1.928,0,0,1-1.794-1.865,2.285,2.285,0,0,0,.05-.338q0-4.794,0-9.587a2.325,2.325,0,0,0-.049-.338,1.878,1.878,0,0,1,1.881-1.824q0,.137,0,.274" transform="translate(-41.615 -30.95)" fill="#46a940"/>
    <path id="Path_1207" data-name="Path 1207" d="M71.692,153.63a.714.714,0,0,1,.678.545.984.984,0,0,1-.261,1.2,2.712,2.712,0,0,0-.4-.059c-4.91,0-9.819.006-14.729-.011a4.2,4.2,0,0,1-2.381-.272.948.948,0,0,1,.357-1.324c.064.059.123.161.192.168a7.845,7.845,0,0,0,.791.029q7.486,0,14.973,0a2.369,2.369,0,0,0,.586-.077c.077-.02.131-.131.2-.2" transform="translate(-39.07 -110.216)" fill="#46a941"/>
    <path id="Path_1208" data-name="Path 1208" d="M80.61,112.107v-.271h1.248l.052.068c-.009.42-.026.841-.027,1.262,0,1.1,0,2.2.006,3.3l0,.086q.008.17.016.339l-.055.135a1.031,1.031,0,0,1-1.407-.428c-.368-.622-.76-1.231-1.147-1.841a2.471,2.471,0,0,0-.25-.283c0,.773-.01,1.5,0,2.22.006.3-.1.439-.406.412l-.853-.078-.04-.206.007-.134c0-.049,0-.1,0-.148l0-.2c0-.026,0-.053,0-.079q0-.91,0-1.82c0-.027,0-.053,0-.08v-.2c0-.049,0-.1,0-.148s0-.089,0-.133,0-.1,0-.148,0-.089,0-.133v-.43q0-.348.008-.7c0-.026,0-.052,0-.078.007-.092.014-.185.021-.278a7.827,7.827,0,0,1,.907.011.619.619,0,0,1,.389.233c.241.342.428.721.67,1.063a2.135,2.135,0,0,0,.444.365l-.011,0,.057.09.322.38.06-.233.007-.154q-.007-.7-.014-1.4-.005-.18-.01-.361" transform="translate(-55.783 -80.232)" fill="#46a941"/>
    <path id="Path_1209" data-name="Path 1209" d="M98.566,115.977c-.108.682-.729.683-1.19.861a2.3,2.3,0,0,1-2.787-1.254,3.124,3.124,0,0,1,.237-3.113,1.974,1.974,0,0,1,1.772-.94,2.865,2.865,0,0,1,1.548.35c.253.151.288.313.119.54-.063.084-.122.172-.184.257-.309.428-.3.392-.8.222-.886-.3-1.431,0-1.65,1.063a1.59,1.59,0,0,0,.388,1.431.963.963,0,0,0,1.029.315c.48-.161.149-.541.308-.863-.225,0-.385-.009-.542,0-.218.016-.294-.082-.286-.29.009-.242,0-.485,0-.767.644,0,1.25-.008,1.855.012.06,0,.162.168.163.259.008.585-.007,1.17-.015,1.756.01.052.02.1.03.157" transform="translate(-67.64 -80.013)" fill="#47a942"/>
    <path id="Path_1210" data-name="Path 1210" d="M64.93,113.315a.893.893,0,0,0-1.022-.511,1.085,1.085,0,0,0-.776.989,1.847,1.847,0,0,0,.229,1.412.865.865,0,0,0,1.425.132c.048-.049.166-.108.189-.088a4.164,4.164,0,0,1,.712.68c.048.066-.131.375-.272.49a2.1,2.1,0,0,1-3.259-.62,3.15,3.15,0,0,1,.129-3.422,2.3,2.3,0,0,1,3.224-.391c.226.215.273.381.051.613s-.4.453-.63.716" transform="translate(-44.272 -79.989)" fill="#47a942"/>
    <path id="Path_1211" data-name="Path 1211" d="M156.1,67.949c-.033.475-.057.95-.1,1.424-.021.236-.084.35-.406.283a3.036,3.036,0,0,1-2.331-3.336,3.134,3.134,0,0,1,.221-.824.343.343,0,0,1,.318-.113c.724.4,1.438.826,2.146,1.256a.35.35,0,0,1,.117.255c.013.35.005.7.005,1.053Z" transform="translate(-109.94 -46.9)" fill="#46a941"/>
    <path id="Path_1212" data-name="Path 1212" d="M54.947,158.61a4.2,4.2,0,0,0,2.381.272c4.909.016,9.819.008,14.729.011a2.722,2.722,0,0,1,.4.059,2.8,2.8,0,0,1-.823.276q-7.9.023-15.808.008a.959.959,0,0,1-.883-.625" transform="translate(-39.42 -113.789)" fill="#37a331"/>
    <path id="Path_1213" data-name="Path 1213" d="M72.95,153.507c-.065.07-.119.181-.2.2a2.369,2.369,0,0,1-.586.077q-7.486.006-14.973,0a7.841,7.841,0,0,1-.791-.029c-.069-.007-.129-.109-.192-.168a1.7,1.7,0,0,1,.359-.08q5.7-.028,11.4-.047c.994,0,1.989-.008,2.984,0,.665,0,1.33.029,1.994.045" transform="translate(-40.327 -110.093)" fill="#37a431"/>
    <path id="Path_1214" data-name="Path 1214" d="M172.067,88.669a1.588,1.588,0,0,1,.191.5c.013,2.251.009,4.5.009,6.752,0,.914-.007,1.829,0,2.743.02,2.294.049,4.589.063,6.884a1.658,1.658,0,0,1-.133.532c-.01.029-.127.021-.195.029q.026-6.983.053-13.967.006-1.738.012-3.477" transform="translate(-123.397 -63.612)" fill="#3ba634"/>
    <path id="Path_1215" data-name="Path 1215" d="M64.671,43.34q0-.137,0-.274c1.429-.007,2.858-.016,4.288-.02q2.5-.007,4.991-.006h.924l1.964.031v.273H64.671" transform="translate(-46.396 -30.874)" fill="#2ea228"/>
    <path id="Path_1216" data-name="Path 1216" d="M48.346,56.985c-.316-.138-.312-.472-.316-.705-.028-1.9-.016-3.791-.015-5.687a5.276,5.276,0,0,1,.009-.543.571.571,0,0,0-.3-.549l.482-.515.087.042v.4c0,1.907-.005,3.815,0,5.722,0,.486.032.972.049,1.458-.008.007-.023.016-.021.02a.3.3,0,0,0,.022.049v.213c-.008.008-.023.018-.021.025a.321.321,0,0,0,.021.058Z" transform="translate(-34.241 -35.143)" fill="#33a42d"/>
    <path id="Path_1217" data-name="Path 1217" d="M75.039,28.9c-.01.09.016.226-.034.265-.364.281-.228.566-.033.859H72.462A12.37,12.37,0,0,1,75.039,28.9" transform="translate(-51.985 -20.73)" fill="#3fa43b"/>
    <path id="Path_1218" data-name="Path 1218" d="M50.07,148.1c-.237,0-.337-.126-.337-.352,0-1.407-.007-2.813.011-4.22,0-.117.168-.233.258-.349l.014,4.634.052.077q0,.1,0,.209" transform="translate(-35.678 -102.717)" fill="#33a42d"/>
    <path id="Path_1219" data-name="Path 1219" d="M144.58,159.529c-.492.338-.884-.021-1.287-.2a3.569,3.569,0,0,1-1.353-1.086,5.473,5.473,0,0,1-.651-1,1.735,1.735,0,0,1-.016-.675,4.708,4.708,0,0,0,1.813,2.333,8.366,8.366,0,0,0,1.347.565c.05.02.1.046.147.069" transform="translate(-101.331 -112.319)" fill="#43a13e"/>
    <path id="Path_1220" data-name="Path 1220" d="M123.158,76.961c1.1,0,2.208,0,3.313,0,.293,0,.439.112.414.414l-.349-.068-1.059-.013h-.212l-.206,0h-1.688l-.074,0-.138-.332" transform="translate(-88.355 -55.211)" fill="#37a431"/>
    <path id="Path_1221" data-name="Path 1221" d="M183.77,63.2a6.319,6.319,0,0,1-.847-1.113,6.444,6.444,0,0,0-.707-1.164,5.9,5.9,0,0,1-.55-1.188,19.162,19.162,0,0,1,2.1,3.464" transform="translate(-130.329 -42.856)" fill="#3f9b3b"/>
    <path id="Path_1222" data-name="Path 1222" d="M80.235,113.67a2.134,2.134,0,0,1-.444-.365c-.242-.341-.429-.721-.67-1.063a.62.62,0,0,0-.389-.233,7.829,7.829,0,0,0-.907-.011c-.056-.21.02-.259.239-.292a1.22,1.22,0,0,1,1.492.8,9.889,9.889,0,0,0,.68,1.169" transform="translate(-55.82 -80.119)" fill="#3b9d37"/>
    <path id="Path_1223" data-name="Path 1223" d="M57.965,49.6a2.287,2.287,0,0,1,.049.338q0,4.794,0,9.587a2.28,2.28,0,0,1-.05.338c-.006-.14-.017-.28-.017-.42q0-4.729,0-9.458c0-.128.012-.257.019-.385" transform="translate(-41.571 -35.582)" fill="#529f4e"/>
    <path id="Path_1224" data-name="Path 1224" d="M197.341,109.3c-.095-.124-.264-.244-.271-.372a16.633,16.633,0,0,1,0-1.72c.007-.128.177-.247.273-.37q.013.841.026,1.681c0,.029,0,.057,0,.086q-.014.348-.029.7" transform="translate(-141.364 -76.643)" fill="#37a431"/>
    <path id="Path_1225" data-name="Path 1225" d="M107.724,43.418q0-.136,0-.273a1.691,1.691,0,0,1,1.675,1.185c-.3-.226-.623-.432-.9-.685a.977.977,0,0,0-.776-.228" transform="translate(-77.282 -30.953)" fill="#3b9d37"/>
    <path id="Path_1226" data-name="Path 1226" d="M189.821,73.757c-.131-.123-.316-.222-.383-.373-.181-.408-.5-.784-.377-1.285l.76,1.657" transform="translate(-135.614 -51.725)" fill="#3f9b3b"/>
    <path id="Path_1227" data-name="Path 1227" d="M122.706,138.692a1.118,1.118,0,0,1,.05.233q0,1.721,0,3.441a1.312,1.312,0,0,1-.056.266q0-1.97.007-3.94" transform="translate(-88.026 -99.499)" fill="#6eae69"/>
    <path id="Path_1228" data-name="Path 1228" d="M124.395,78.156h0Z" transform="translate(-89.242 -56.07)" fill="#6eae69"/>
    <path id="Path_1229" data-name="Path 1229" d="M131.364,78.14l1.059.013-1.059-.013" transform="translate(-94.242 -56.058)" fill="#6eae69"/>
    <path id="Path_1230" data-name="Path 1230" d="M123.012,102.739q-.014.192-.029.383.014-.192.029-.383" transform="translate(-88.229 -73.706)" fill="#6eae69"/>
    <path id="Path_1231" data-name="Path 1231" d="M87.854,112.8q0,.18.01.361-.005-.18-.01-.361" transform="translate(-63.027 -80.921)" fill="#90cc8e"/>
    <path id="Path_1232" data-name="Path 1232" d="M81.579,32.84l.363-.018-.363.018" transform="translate(-58.526 -23.547)" fill="#9bc494"/>
    <path id="Path_1233" data-name="Path 1233" d="M122.962,117.785q0,.176-.007.353,0-.176.007-.353" transform="translate(-88.209 -84.5)" fill="#6eae69"/>
    <path id="Path_1234" data-name="Path 1234" d="M122.945,41.843c.011.1.022.2.033.3-.011-.1-.022-.2-.033-.3" transform="translate(-88.202 -30.019)" fill="#b2d6b4"/>
    <path id="Path_1235" data-name="Path 1235" d="M78.325,92.542h0" transform="translate(-56.191 -66.391)" fill="#9bc494"/>
    <path id="Path_1236" data-name="Path 1236" d="M76.832,92.54h0" transform="translate(-55.12 -66.389)" fill="#9bc494"/>
    <path id="Path_1237" data-name="Path 1237" d="M122.743,136.659l-.042.294q0-.136-.009-.273l.051-.021" transform="translate(-88.021 -98.041)" fill="#6eae69"/>
    <path id="Path_1238" data-name="Path 1238" d="M19.7,151.343l-.083-.207.083.207" transform="translate(-14.076 -108.427)" fill="#43a13e"/>
    <path id="Path_1239" data-name="Path 1239" d="M77.756,129.475l.04.206-.04-.206" transform="translate(-55.783 -92.887)" fill="#c5e8c2"/>
    <path id="Path_1240" data-name="Path 1240" d="M50.11,89.336q-.01-.117-.019-.234c.007.078.013.156.019.234" transform="translate(-35.936 -63.923)" fill="#90cc8e"/>
    <path id="Path_1241" data-name="Path 1241" d="M109.365,126.866c-.01-.052-.02-.1-.03-.157.01.052.02.1.03.157" transform="translate(-78.438 -90.902)" fill="#aad3a5"/>
    <path id="Path_1242" data-name="Path 1242" d="M77.775,128.476c0,.049,0,.1,0,.148,0-.049,0-.1,0-.148" transform="translate(-55.797 -92.17)" fill="#c5e8c2"/>
    <path id="Path_1243" data-name="Path 1243" d="M122.581,158.343v0" transform="translate(-87.941 -113.597)" fill="#c5e8c2"/>
    <path id="Path_1244" data-name="Path 1244" d="M122.58,157.348v0" transform="translate(-87.94 -112.883)" fill="#c5e8c2"/>
    <path id="Path_1245" data-name="Path 1245" d="M122.579,160.334c0,.049,0,.1,0,.148,0-.049,0-.1,0-.148" transform="translate(-87.94 -115.025)" fill="#c5e8c2"/>
    <path id="Path_1246" data-name="Path 1246" d="M122.578,161.33c0,.049,0,.1,0,.148,0-.049,0-.1,0-.148" transform="translate(-87.939 -115.74)" fill="#c5e8c2"/>
    <path id="Path_1247" data-name="Path 1247" d="M122.578,162.325v0" transform="translate(-87.939 -116.454)" fill="#c5e8c2"/>
    <path id="Path_1248" data-name="Path 1248" d="M122.578,163.321v0" transform="translate(-87.939 -117.168)" fill="#c5e8c2"/>
    <path id="Path_1249" data-name="Path 1249" d="M122.579,164.317v0" transform="translate(-87.94 -117.883)" fill="#c5e8c2"/>
    <path id="Path_1250" data-name="Path 1250" d="M66.376,92.546h0" transform="translate(-47.619 -66.393)" fill="#9bc494"/>
    <path id="Path_1251" data-name="Path 1251" d="M113.176,32.85l.153.008-.153-.008" transform="translate(-81.194 -23.567)" fill="#9bc494"/>
    <path id="Path_1252" data-name="Path 1252" d="M122.743,136.325l-.051.021.025-.152.025.131" transform="translate(-88.021 -97.707)" fill="#c3ddc2"/>
    <path id="Path_1253" data-name="Path 1253" d="M122.579,165.312v0" transform="translate(-87.94 -118.597)" fill="#c5e8c2"/>
    <path id="Path_1254" data-name="Path 1254" d="M23.667,115.049c0,.047-.008.094-.011.141,0-.047.008-.094.011-.141" transform="translate(-16.971 -82.537)" fill="#6eae69"/>
    <path id="Path_1255" data-name="Path 1255" d="M92.255,129.853l.055-.136-.055.136" transform="translate(-66.185 -93.06)" fill="#b2d6b4"/>
    <path id="Path_1256" data-name="Path 1256" d="M77.77,116.529v0" transform="translate(-55.793 -83.599)" fill="#c5e8c2"/>
    <path id="Path_1257" data-name="Path 1257" d="M122.579,166.308v0" transform="translate(-87.94 -119.311)" fill="#c5e8c2"/>
    <path id="Path_1258" data-name="Path 1258" d="M77.772,117.525c0,.049,0,.1,0,.148,0-.049,0-.1,0-.148" transform="translate(-55.794 -84.314)" fill="#c5e8c2"/>
    <path id="Path_1259" data-name="Path 1259" d="M122.577,167.3c0,.049,0,.1,0,.148,0-.049,0-.1,0-.148" transform="translate(-87.938 -120.025)" fill="#c5e8c2"/>
    <path id="Path_1260" data-name="Path 1260" d="M77.773,118.52c0,.049,0,.1,0,.148,0-.049,0-.1,0-.148" transform="translate(-55.795 -85.028)" fill="#c5e8c2"/>
    <path id="Path_1261" data-name="Path 1261" d="M87.921,119.008l-.007.154.007-.154" transform="translate(-63.07 -85.378)" fill="#90cc8e"/>
    <path id="Path_1262" data-name="Path 1262" d="M77.776,119.516c0,.049,0,.1,0,.148,0-.049,0-.1,0-.148" transform="translate(-55.797 -85.742)" fill="#c5e8c2"/>
    <path id="Path_1263" data-name="Path 1263" d="M122.572,168.3c0,.049,0,.1,0,.148,0-.049,0-.1,0-.148" transform="translate(-87.934 -120.74)" fill="#c5e8c2"/>
    <path id="Path_1264" data-name="Path 1264" d="M122.581,159.339v0" transform="translate(-87.941 -114.312)" fill="#c5e8c2"/>
    <path id="Path_1265" data-name="Path 1265" d="M86.417,118.806l-.057-.09.057.09" transform="translate(-61.956 -85.168)" fill="#3b9d37"/>
    <path id="Path_1266" data-name="Path 1266" d="M122.983,111.806a.315.315,0,0,1,.022.053c0,.005-.014.014-.022.021,0-.025,0-.049,0-.074" transform="translate(-88.229 -80.211)" fill="#6eae69"/>
    <path id="Path_1267" data-name="Path 1267" d="M50.553,127.308l0-.081a.34.34,0,0,1,.024.057c0,.006-.014.016-.022.024" transform="translate(-36.265 -91.274)" fill="#c3ddc2"/>
    <path id="Path_1268" data-name="Path 1268" d="M77.729,127.478c0,.027,0,.053,0,.079a.332.332,0,0,1-.022-.057c0-.006.015-.015.023-.023" transform="translate(-55.747 -91.454)" fill="#c5e8c2"/>
    <path id="Path_1269" data-name="Path 1269" d="M50.618,128.323a.338.338,0,0,1-.023-.059c0-.007.011-.018.017-.027a.4.4,0,0,1,.018.058c0,.008-.008.019-.012.028" transform="translate(-36.297 -91.999)" fill="#c3ddc2"/>
    <path id="Path_1270" data-name="Path 1270" d="M92.385,128.3l0-.087,0,.087" transform="translate(-66.276 -91.98)" fill="#b2d6b4"/>
    <path id="Path_1271" data-name="Path 1271" d="M77.718,120.757c0,.027,0,.053,0,.08a.336.336,0,0,1-.023-.057c0-.006.015-.015.023-.023" transform="translate(-55.74 -86.632)" fill="#c5e8c2"/>
    <path id="Path_1272" data-name="Path 1272" d="M122.983,116.785a.314.314,0,0,1,.021.053c0,.005-.014.014-.022.021,0-.025,0-.049,0-.074" transform="translate(-88.229 -83.783)" fill="#6eae69"/>
    <path id="Path_1273" data-name="Path 1273" d="M122.985,115.789a.314.314,0,0,1,.021.053c0,.005-.014.014-.022.021,0-.025,0-.049,0-.074" transform="translate(-88.23 -83.068)" fill="#6eae69"/>
    <path id="Path_1274" data-name="Path 1274" d="M122.983,114.793a.315.315,0,0,1,.022.053c0,.005-.014.014-.022.021,0-.025,0-.049,0-.074" transform="translate(-88.229 -82.354)" fill="#6eae69"/>
    <path id="Path_1275" data-name="Path 1275" d="M122.982,113.8a.316.316,0,0,1,.022.053c0,.005-.014.014-.022.021,0-.025,0-.049,0-.074" transform="translate(-88.229 -81.639)" fill="#6eae69"/>
    <path id="Path_1276" data-name="Path 1276" d="M77.739,113.79c0,.026,0,.052,0,.078a.313.313,0,0,1-.023-.055c0-.005.015-.015.023-.023" transform="translate(-55.755 -81.634)" fill="#c5e8c2"/>
    <path id="Path_1277" data-name="Path 1277" d="M99.576,43.041h0" transform="translate(-71.38 -30.878)" fill="#c3ddc2"/>
    <path id="Path_1278" data-name="Path 1278" d="M198.184,112.868c0-.029,0-.057,0-.086,0,.029,0,.057,0,.086" transform="translate(-142.179 -80.911)" fill="#b2d6b4"/>
    <path id="Path_1279" data-name="Path 1279" d="M122.983,112.8a.315.315,0,0,1,.022.053c0,.005-.014.014-.022.021,0-.025,0-.049,0-.074" transform="translate(-88.229 -80.925)" fill="#6eae69"/>
    <path id="Path_1280" data-name="Path 1280" d="M98.581,43.048h0" transform="translate(-70.666 -30.883)" fill="#c3ddc2"/>
    <path id="Path_1281" data-name="Path 1281" d="M97.585,43.05h0" transform="translate(-69.952 -30.885)" fill="#c3ddc2"/>
    <path id="Path_1282" data-name="Path 1282" d="M122.567,153.617c0,.025,0,.051,0,.077a.3.3,0,0,1-.019-.055c0-.006.014-.015.022-.022" transform="translate(-87.915 -110.207)" fill="#c5e8c2"/>
    <path id="Path_1283" data-name="Path 1283" d="M122.983,110.811a.315.315,0,0,1,.022.053c0,.005-.014.014-.022.021,0-.025,0-.049,0-.074" transform="translate(-88.229 -79.497)" fill="#6eae69"/>
    <path id="Path_1284" data-name="Path 1284" d="M122.983,109.815a.315.315,0,0,1,.022.053c0,.005-.014.014-.022.021,0-.025,0-.049,0-.074" transform="translate(-88.229 -78.782)" fill="#6eae69"/>
    <path id="Path_1285" data-name="Path 1285" d="M122.983,108.82a.315.315,0,0,1,.022.053c0,.005-.014.014-.022.021,0-.025,0-.049,0-.074" transform="translate(-88.229 -78.069)" fill="#6eae69"/>
    <path id="Path_1286" data-name="Path 1286" d="M50.79,159.654l-.052-.077.052.077" transform="translate(-36.4 -114.482)" fill="#46aa42"/>
    <path id="Path_1287" data-name="Path 1287" d="M122.983,107.824a.315.315,0,0,1,.022.053c0,.005-.014.014-.022.021,0-.025,0-.049,0-.074" transform="translate(-88.229 -77.354)" fill="#6eae69"/>
    <path id="Path_1288" data-name="Path 1288" d="M122.982,106.828a.315.315,0,0,1,.022.053c0,.005-.014.014-.022.021,0-.025,0-.049,0-.074" transform="translate(-88.229 -76.64)" fill="#6eae69"/>
    <path id="Path_1289" data-name="Path 1289" d="M198.163,105.9l-.005-.087.005.087" transform="translate(-142.161 -75.909)" fill="#b2d6b4"/>
    <path id="Path_1290" data-name="Path 1290" d="M122.982,105.833a.316.316,0,0,1,.022.053c0,.005-.014.014-.022.021,0-.025,0-.049,0-.074" transform="translate(-88.229 -75.926)" fill="#6eae69"/>
    <path id="Path_1291" data-name="Path 1291" d="M122.983,104.837a.315.315,0,0,1,.022.053c0,.005-.014.014-.022.021,0-.025,0-.049,0-.074" transform="translate(-88.229 -75.211)" fill="#6eae69"/>
    <path id="Path_1292" data-name="Path 1292" d="M64.359,92.516l.1.009-.1-.009" transform="translate(-46.172 -66.372)" fill="#9bc494"/>
    <path id="Path_1293" data-name="Path 1293" d="M191.924,78.214l-.049-.094.049.094" transform="translate(-137.653 -56.044)" fill="#3f9b3b"/>
    <path id="Path_1294" data-name="Path 1294" d="M130.613,78.145h0" transform="translate(-93.703 -56.061)" fill="#6eae69"/>
    <path id="Path_1295" data-name="Path 1295" d="M123.648,78.145l.075,0-.075,0" transform="translate(-88.706 -56.062)" fill="#6eae69"/>
    <path id="Path_1296" data-name="Path 1296" d="M49.863,77.054A.322.322,0,0,1,49.842,77c0-.007.014-.016.022-.025,0,.028,0,.055,0,.083" transform="translate(-35.757 -55.22)" fill="#46aa42"/>
    <path id="Path_1297" data-name="Path 1297" d="M122.506,169.544l-.012.1.012-.1" transform="translate(-87.879 -121.633)" fill="#c5e8c2"/>
    <path id="Path_1298" data-name="Path 1298" d="M49.86,76.044A.283.283,0,0,1,49.838,76s.014-.013.021-.02v.069" transform="translate(-35.754 -54.505)" fill="#46aa42"/>
    <path id="Path_1299" data-name="Path 1299" d="M92.323,111.9l-.052-.068Z" transform="translate(-66.196 -80.232)" fill="#b2d6b4"/>
    <path id="Path_1300" data-name="Path 1300" d="M100.571,43.035h0" transform="translate(-72.094 -30.874)" fill="#c3ddc2"/>
    <path id="Path_1301" data-name="Path 1301" d="M68.923,86.886l-.086.133-.106-.158.192.025" transform="translate(-49.308 -62.315)" fill="#47aa42"/>
    <path id="Path_1302" data-name="Path 1302" d="M98.366,47.185l-.052-.078.052.078" transform="translate(-70.532 -33.795)" fill="#47aa42"/>
    <path id="Path_1303" data-name="Path 1303" d="M98.508,47.431a.127.127,0,0,1-.025-.063.552.552,0,0,1,.043.038s-.012.017-.018.025" transform="translate(-70.653 -33.982)" fill="#47aa42"/>
    <path id="Path_1304" data-name="Path 1304" d="M97.424,47.6l-.01.066a.238.238,0,0,1-.013-.049c0-.005.015-.011.023-.017" transform="translate(-69.876 -34.151)" fill="#47aa42"/>
    <path id="Path_1305" data-name="Path 1305" d="M72.206,64.773l-.068.072.068-.072" transform="translate(-51.753 -46.469)" fill="#47aa42"/>
  </g>
</svg>
