<svg xmlns="http://www.w3.org/2000/svg" xmlns:xlink="http://www.w3.org/1999/xlink" width="77.162" height="39.73" viewBox="0 0 77.162 39.73">
  <defs>
    <clipPath id="clip-path">
      <rect id="Rectangle_4851" data-name="Rectangle 4851" width="77.162" height="39.73" transform="translate(0 0)" fill="#07c500"/>
    </clipPath>
  </defs>
  <g id="Group_9321" data-name="Group 9321" transform="translate(0 0.002)">
    <g id="Group_9321-2" data-name="Group 9321" transform="translate(0 -0.002)" clip-path="url(#clip-path)">
      <path id="Path_1177" data-name="Path 1177" d="M55.087,31.566c.064-.3.14-.6.186-.9.022-.141.14-.184.208-.287a1.615,1.615,0,0,1,.173-.848,8.57,8.57,0,0,1,.754-1.408,8.129,8.129,0,0,1,14.813,3.5c.027.222.056.444.086.682.124,0,.229.011.334.011h4.139c.08,0,.161,0,.241,0a1.2,1.2,0,0,0,1.134-1.056,1.235,1.235,0,0,0-.928-1.311c-.132-.018-.265-.032-.4-.041a3.476,3.476,0,0,1-.459-.02c0-.159-.007-.3-.007-.448q0-3.315,0-6.63a6.622,6.622,0,0,0-.14-1.436,3.557,3.557,0,0,0-1.531-2.316c-.044-.029-.085-.063-.134-.1l-.021-.318,0-.161a8.3,8.3,0,0,0-.189-1.633,10.91,10.91,0,0,0-3.828-6.361,10.866,10.866,0,0,0-6.922-2.472q-3.757.007-7.513,0c-.08,0-.161,0-.241,0A1.809,1.809,0,0,0,53.1,9.557a5.582,5.582,0,0,0-.033.6q0,9.3,0,18.6c0,.08,0,.161,0,.241s-.013.15-.023.247h-.783c-.268,0-.536.007-.8,0a2.609,2.609,0,0,1-.763-.042v-.331q0-2.913,0-5.826c0-.121.006-.242,0-.361a1.213,1.213,0,0,0-1.213-1.155c-.08,0-.161,0-.241,0H8.613c-.107,0-.215,0-.321,0a1.178,1.178,0,0,0-1.079.875,2,2,0,0,0-.056.515q-.006,2.953,0,5.906c0,.146-.006.292-.009.434a3.3,3.3,0,0,0-.342.154,1.2,1.2,0,0,0,.221,2.2,1.964,1.964,0,0,0,.517.05c.884,0,1.768,0,2.652,0h.495a8.107,8.107,0,0,1,2.854-5.106,8.116,8.116,0,0,1,10.466.041,8.06,8.06,0,0,1,2.8,5.034,1.12,1.12,0,0,0,.445.035c2.062,0,4.125-.014,6.187-.015q6.449-.005,12.9,0l8.277,0c.12,0,.24-.009.36-.013.067.015.124.016.117-.078M26.155,20.327q8.518,0,17.036,0a9.074,9.074,0,0,0,3.846-.827A9.167,9.167,0,0,0,52.4,11.278c.007-.75.012-1.5,0-2.25a9.256,9.256,0,0,0-.1-1.24A9.212,9.212,0,0,0,45.707.344,9.762,9.762,0,0,0,43.008,0Q26.193,0,9.379,0c-.107,0-.214,0-.321,0a9.318,9.318,0,0,0-3.1.586A9.191,9.191,0,0,0,0,9.181c0,.683-.01,1.366,0,2.049A9.648,9.648,0,0,0,.1,12.471a9.21,9.21,0,0,0,6.257,7.418,9.236,9.236,0,0,0,2.885.44q8.458-.008,16.915,0m-7.386,19.4a6.926,6.926,0,1,0-6.944-6.9,6.92,6.92,0,0,0,6.944,6.9m37.471-7.075a6.923,6.923,0,1,0,6.91-6.925,6.9,6.9,0,0,0-6.91,6.925" transform="translate(0 0.002)" fill="#07c500"/>
    </g>
  </g>
</svg>
