<svg xmlns="http://www.w3.org/2000/svg" xmlns:xlink="http://www.w3.org/1999/xlink" width="54.403" height="69.104" viewBox="0 0 54.403 69.104">
  <defs>
    <clipPath id="clip-path">
      <rect id="Rectangle_16" data-name="Rectangle 16" width="54.403" height="69.104" fill="#0784bd"/>
    </clipPath>
  </defs>
  <g id="Group_27" data-name="Group 27" clip-path="url(#clip-path)">
    <path id="Path_3" data-name="Path 3" d="M54.1,22.978A27.258,27.258,0,0,0,27.226,0,28.048,28.048,0,0,0,16.51,2.2a27.316,27.316,0,0,0-15.061,34A38.126,38.126,0,0,0,8.468,48.345c4.759,5.834,9.88,11.351,14.958,16.9,1.084,1.186,2.194,2.347,3.27,3.538.365.4.657.444.983-.012.079-.112.18-.207.27-.311,5.635-6.593,11.267-13.187,16.744-19.912a54.232,54.232,0,0,0,7.173-10.977,24.36,24.36,0,0,0,2.23-14.6M43.788,21.225a2.247,2.247,0,0,1-.913,1.848,1.159,1.159,0,0,0-.475,1.065c.01,1.7,0,3.4,0,5.092a10.132,10.132,0,0,1-.191,2.121,3.572,3.572,0,0,1-3.143,3.029,18.591,18.591,0,0,1-3.5.132c-.592,0-.843.213-.817.8.022.526.023,1.056,0,1.583-.032.631.259.876.866.835.32-.022.643.01.963,0,.514-.015.763.2.747.737-.019.642-.029,1.286,0,1.927s-.213.887-.879.883c-3.715-.025-7.431-.012-11.147-.012q-5.471,0-10.94,0c-.959,0-1-.044-1-1.016,0-.551.032-1.1-.007-1.651-.05-.679.267-.9.9-.873.434.022.87,0,1.307-.01a.523.523,0,0,0,.585-.6c0-.275.008-.551.008-.826q0-11.113,0-22.226a3.541,3.541,0,0,1,.353-1.8,2.749,2.749,0,0,1,2.57-1.428c4.289-.006,8.578-.019,12.867,0a2.634,2.634,0,0,1,2.807,2.879q.017,8.462.006,16.928v.275c0,1.306,0,1.31,1.285,1.307.825,0,1.651.006,2.475-.04.993-.056,1.477-.459,1.536-1.42.143-2.381.055-4.768.052-7.154a.974.974,0,0,0-.4-.693,2.7,2.7,0,0,1-.848-2.1c.023-.825,0-1.651.01-2.476a2.164,2.164,0,0,1,.744-1.715,1.313,1.313,0,0,0,.511-1.2,3.663,3.663,0,0,1,.032-.824,1.007,1.007,0,0,1,1.021-.935,1.081,1.081,0,0,1,1.168.862,1.433,1.433,0,0,1,.052.477,1.673,1.673,0,0,0,.707,1.66,1.934,1.934,0,0,1,.69,1.594c.022.986.025,1.972,0,2.959M30.664,14.787c-1.72.028-3.441.008-5.161.008s-3.442.019-5.161-.01c-.678-.012-.942.222-.93.917.03,1.926.006,3.854.011,5.781,0,.836.07.9.906.906,3.442.006,6.883-.01,10.323.011.647,0,.9-.212.9-.875q-.041-2.923,0-5.85c.008-.651-.229-.9-.884-.89" transform="translate(0)" fill="#0784bd"/>
    <path id="Path_4" data-name="Path 4" d="M153.074,108.238c.008-.651-.229-.9-.884-.89-1.72.028-3.441.008-5.161.008s-3.442.019-5.161-.01c-.678-.012-.942.222-.93.917.03,1.926.005,3.854.011,5.781,0,.836.07.9.906.906,3.442.006,6.883-.01,10.323.011.647,0,.9-.212.9-.875q-.041-2.923,0-5.85" transform="translate(-121.526 -92.561)" fill="#0784bd"/>
    <path id="Path_5" data-name="Path 5" d="M153.074,114.088c.008.663-.248.879-.9.875-3.441-.021-6.881-.005-10.323-.011-.836,0-.9-.07-.906-.906-.006-1.927.019-3.855-.011-5.781-.012-.7.252-.93.93-.917,1.719.029,3.441.01,5.161.01s3.441.019,5.161-.008c.656-.011.893.238.884.89q-.039,2.923,0,5.85" transform="translate(-121.526 -92.561)" fill="#0784bd"/>
  </g>
</svg>
