<svg xmlns="http://www.w3.org/2000/svg" width="39.573" height="46.168" viewBox="0 0 39.573 46.168">
  <path id="Path_1397" data-name="Path 1397" d="M34.779,5.4H27.788a6.569,6.569,0,0,0-12.4,0H8.4A4.41,4.41,0,0,0,4,9.794V42.771a4.41,4.41,0,0,0,4.4,4.4H21.83a14.825,14.825,0,0,1-3.122-4.4H8.4V9.794h4.4v2.2a4.41,4.41,0,0,0,4.4,4.4h8.794a4.41,4.41,0,0,0,4.4-4.4v-2.2h4.4V20.962a15.456,15.456,0,0,1,4.4,1.319V9.794A4.41,4.41,0,0,0,34.779,5.4Zm-13.191,4.4a2.2,2.2,0,1,1,2.2-2.2A2.2,2.2,0,0,1,21.588,9.794ZM32.58,25.183A10.992,10.992,0,1,0,43.573,36.176,11,11,0,0,0,32.58,25.183Zm2.836,15.389-3.628-3.628a1.12,1.12,0,0,1-.33-.769V30.7a1.089,1.089,0,0,1,1.1-1.1h0a1.089,1.089,0,0,1,1.1,1.1v5.035l3.3,3.3a1.088,1.088,0,0,1,0,1.561h0A1.082,1.082,0,0,1,35.416,40.573Z" transform="translate(-4 -1)" fill="#199de4"/>
</svg>
