<svg xmlns="http://www.w3.org/2000/svg" width="39.199" height="43.554" viewBox="0 0 39.199 43.554">
  <path id="Path_1392" data-name="Path 1392" d="M37.843,6.355H35.665V2H31.31V6.355H13.888V2H9.533V6.355H7.355a4.336,4.336,0,0,0-4.334,4.355L3,41.2a4.354,4.354,0,0,0,4.355,4.355H37.843A4.368,4.368,0,0,0,42.2,41.2V10.711A4.368,4.368,0,0,0,37.843,6.355Zm0,34.843H7.355V19.422H37.843ZM16.066,28.133H11.711V23.777h4.355Zm8.711,0H20.422V23.777h4.355Zm8.711,0H29.132V23.777h4.355ZM16.066,36.843H11.711V32.488h4.355Zm8.711,0H20.422V32.488h4.355Zm8.711,0H29.132V32.488h4.355Z" transform="translate(-3 -2)" fill="#603abb"/>
</svg>
