<svg xmlns="http://www.w3.org/2000/svg" width="58.001" height="58.838" viewBox="0 0 58.001 58.838">
  <g id="Inspection" transform="translate(-29.999 -482.356)">
    <path id="Subtraction_1" data-name="Subtraction 1" d="M-8362-1579.838h0a124.025,124.025,0,0,1-9.5-12.3,77.792,77.792,0,0,1-6.532-11.462,29.14,29.14,0,0,1-2.969-11.526,18.881,18.881,0,0,1,5.562-13.439,18.884,18.884,0,0,1,13.44-5.561,18.88,18.88,0,0,1,13.439,5.561,18.877,18.877,0,0,1,5.561,13.439,20.18,20.18,0,0,1-.455,4.091c-.508-.047-1.027-.072-1.546-.072a16.518,16.518,0,0,0-16.5,16.5,16.343,16.343,0,0,0,3.426,10.068c-2.288,2.887-3.908,4.684-3.924,4.7Zm0-42.073a6.793,6.793,0,0,0-6.785,6.785,6.794,6.794,0,0,0,6.785,6.788,6.794,6.794,0,0,0,6.785-6.788A6.793,6.793,0,0,0-8362-1621.911Z" transform="translate(8411 2116.481)" fill="#a0b6d2"/>
    <path id="Icon_awesome-search" data-name="Icon awesome-search" d="M32.737,28.7l-6.463-6.463a1.555,1.555,0,0,0-1.1-.454H24.115a13.478,13.478,0,1,0-2.334,2.334v1.057a1.555,1.555,0,0,0,.454,1.1L28.7,32.737a1.549,1.549,0,0,0,2.2,0L32.73,30.9a1.563,1.563,0,0,0,.006-2.2ZM13.484,21.781a8.3,8.3,0,1,1,8.3-8.3A8.293,8.293,0,0,1,13.484,21.781Z" transform="translate(54.812 508)" fill="#a0b6d2"/>
  </g>
</svg>
