<svg xmlns="http://www.w3.org/2000/svg" width="363.953" height="108.143" viewBox="0 0 363.953 108.143">
  <g id="Start_Active" data-name="Start Active" transform="translate(18766.131 -14231)">
    <path id="Path_1409" data-name="Path 1409" d="M4.7,108.643a18.217,18.217,0,0,1-18.2-18.2V18.7A18.217,18.217,0,0,1,4.7.5H301.845c6.116,0,44.039,48.219,44.039,48.219s1.282,7.928,0,11.7c-12.584,16.711-37.923,48.219-44.039,48.219Z" transform="translate(-18748.631 14230.5)" fill="#fff"/>
    <path id="Path_1410" data-name="Path 1410" d="M4.7,108.643a18.217,18.217,0,0,1-18.2-18.2V18.7A18.217,18.217,0,0,1,4.7.5H301.845c6.116,0,44.039,48.219,44.039,48.219s1.282,7.928,0,11.7c-12.584,16.711-37.923,48.219-44.039,48.219Z" transform="translate(-18752.631 14230.5)" fill="#19437a"/>
  </g>
</svg>
