<svg xmlns="http://www.w3.org/2000/svg" xmlns:xlink="http://www.w3.org/1999/xlink" width="83.999" height="72.44" viewBox="0 0 83.999 72.44">
  <defs>
    <clipPath id="clip-path">
      <rect id="Rectangle_2" data-name="Rectangle 2" width="83.999" height="72.44" fill="#5e3ea8"/>
    </clipPath>
  </defs>
  <g id="Group_5" data-name="Group 5" clip-path="url(#clip-path)">
    <path id="Path_8" data-name="Path 8" d="M16.441,72.44c-3.729-.5-8.256-1-12.74-1.748C.056,70.086-.75,68.435.642,65.02c3.089-7.577,6.136-15.171,9.348-22.7.813-1.906.966-3.566-.215-5.267-1.6-2.3-1.192-4.3.709-6.278a56.308,56.308,0,0,0,4.253-5.052c3.968-5.244,9.509-7.324,15.953-7.758a6.561,6.561,0,0,0,2.828-.91c1.858-1.119,3.309-3,5.927-2.535.407.073.955-.489,1.409-.8C55.7,3.663,50.094,6.194,69.316,2.058,72.436,1.386,75.589.85,78.693.115c2.138-.506,2.734.727,3.066,2.287.344,1.617-.19,2.592-2.079,2.953C73.8,6.48,67.97,7.84,62.09,8.957a16.5,16.5,0,0,0-9.466,5.077,10.985,10.985,0,0,1-2.008,2c-3.73,2.37-4.283,6.32-5.2,10a8.844,8.844,0,0,0,.441,4.545,15.515,15.515,0,0,1-1.52,13.456c-.311.507-.777,1.191-.644,1.648.829,2.83-.434,5.164-1.638,7.547-1.443,2.857-3.06,5.655-4.22,8.619-2.58,6.592-7.982,9.171-14.594,10.128-1.971.285-3.985.282-6.8.465m8.911-8.289-.848.073a15.562,15.562,0,0,1-.972-2.462c-.474-2.2-.686-4.461-1.258-6.635-1.029-3.911-.673-7.261,3.626-9.363-4.164-1.353-4.213-1.377-5.914,1.991-2.321,4.595-4.564,9.227-6.823,13.852-.664,1.36-1.266,2.748-2,4.358,4.366,0,8.373.342,12.288-.1,3.993-.446,7.51-2.288,9.4-6.049a54.567,54.567,0,0,0,3.411-7.932,5.35,5.35,0,0,0-.753-3.75,2.628,2.628,0,0,0-3.566-.93c-1.527.653-3.152,1.1-4.644,1.82a3.887,3.887,0,0,0-2.364,4.387c.352,2.77.509,5.567.677,8.356a14.027,14.027,0,0,1-.251,2.38" transform="translate(0 0)" fill="#5e3ea8"/>
    <path id="Path_9" data-name="Path 9" d="M164.992,24.2a83.629,83.629,0,0,1,2.7,8.3,3.068,3.068,0,0,1-3.1,4.016,3.036,3.036,0,0,1-3.188-3.926,78.989,78.989,0,0,1,2.669-8.357l.913-.037" transform="translate(-83.802 -12.902)" fill="#5e3ea8"/>
  </g>
</svg>
