<svg xmlns="http://www.w3.org/2000/svg" width="37.381" height="41.534" viewBox="0 0 37.381 41.534">
  <path id="Path_1399" data-name="Path 1399" d="M16.1,34.227l5.067-5.067,5.067,5.067,2.2-2.2-5.067-5.067,5.067-5.067-2.2-2.2-5.067,5.067L16.1,19.69l-2.2,2.2,5.067,5.067L13.9,32.026ZM36.227,5.153H34.151V1H30V5.153H13.384V1H9.23V5.153H7.153A4.135,4.135,0,0,0,3.021,9.307L3,38.381a4.152,4.152,0,0,0,4.153,4.153H36.227a4.166,4.166,0,0,0,4.153-4.153V9.307A4.166,4.166,0,0,0,36.227,5.153Zm0,33.227H7.153V15.537H36.227Z" transform="translate(-3 -1)" fill="#fd607b"/>
</svg>
