<svg xmlns="http://www.w3.org/2000/svg" xmlns:xlink="http://www.w3.org/1999/xlink" width="101.476" height="64" viewBox="0 0 101.476 64">
  <defs>
    <clipPath id="clip-path">
      <rect id="Rectangle_4544" data-name="Rectangle 4544" width="101.476" height="64" transform="translate(0)" fill="#0784bd"/>
    </clipPath>
  </defs>
  <g id="Group_840" data-name="Group 840" clip-path="url(#clip-path)">
    <path id="Path_283" data-name="Path 283" d="M101.413,43.583c-.381-6.24-1.419-12.275-4.139-17.7-2-3.985-4.593-6.559-8.5-6.334H62.71v.061q-25.116.084-50.224-.019c-3.1-.019-5.375,1.472-7.161,4.342C2.319,28.748.9,34.323.4,40.3a15.03,15.03,0,0,0-.355,3.77c0,.769.008,1.533.011,2.3.008.8.019,1.6.027,2.4A7.911,7.911,0,0,0,.16,51.483a33.66,33.66,0,0,0,1.373,8.5,5.393,5.393,0,0,0,.717,2.869,5.081,5.081,0,0,0,.809,2.293c2.27,6.414,5.429,9.265,10.579,9.222q37.03-.309,74.067.009c5.23.052,8.637-2.771,11.021-10.141A13.778,13.778,0,0,0,100,60.044a45.24,45.24,0,0,0,1.35-8.449c.019-.338.042-.67.061-1.008.011-2.335.145-4.684,0-7M45.558,26.146H31.084q-7.142,0-14.283,0c-.813,0-1.831.183-1.888-1.257-.069-1.679,1.057-1.43,1.919-1.43q14.375-.014,28.753,0c.889,0,2.037-.159,2.022,1.35-.019,1.472-1.156,1.341-2.049,1.341m38.829-5.969c-.118-.361-.027-.525.294-.488-.1.159-.195.324-.294.488" transform="translate(0 -10.374)" fill="#0784bd"/>
    <path id="Path_284" data-name="Path 284" d="M114.739,6.564c-3.168,0-6.336-.044-9.5.025-.988.022-1.419-.143-1.427-1.583-.029-4.969-.085-4.969,4-4.969,5.512,0,11.024.049,16.535-.036,1.26-.019,1.746.237,1.719,1.974-.072,4.588,0,4.59-3.723,4.59h-7.6" transform="translate(-64.203 0)" fill="#0784bd"/>
  </g>
</svg>
