<svg xmlns="http://www.w3.org/2000/svg" xmlns:xlink="http://www.w3.org/1999/xlink" width="65.937" height="43.133" viewBox="0 0 65.937 43.133">
  <defs>
    <clipPath id="clip-path">
      <rect id="Rectangle_4586" data-name="Rectangle 4586" width="65.937" height="43.133" fill="#406ca5"/>
    </clipPath>
  </defs>
  <g id="Group_1113" data-name="Group 1113" clip-path="url(#clip-path)">
    <path id="Path_354" data-name="Path 354" d="M39.842,43.129c.105-.706.178-1.39.313-2.061a16.083,16.083,0,0,1,1.519-4.34,22.883,22.883,0,0,1,2.444-3.671A18.416,18.416,0,0,1,47.841,29.6a20.462,20.462,0,0,1,5.28-2.862c.894-.3,1.775-.645,2.682-.9a23.662,23.662,0,0,1,2.367-.508c.717-.127,1.443-.2,2.206-.3-.339-.132-.652-.258-.969-.376a10.471,10.471,0,0,1-4.044-2.8,12.5,12.5,0,0,1-2.975-5.757,11.7,11.7,0,0,1-.382-2.4c-.016-.633-.1-1.27-.052-1.9A15.348,15.348,0,0,1,53.08,6.9,12.945,12.945,0,0,1,55.2,3.446a10.577,10.577,0,0,1,2.722-2.257A8.566,8.566,0,0,1,60.866.13a8.732,8.732,0,0,1,3.292.052A10.042,10.042,0,0,1,66.7,1.07a7.524,7.524,0,0,1,2.013,1.457,22.685,22.685,0,0,1,1.623,1.856A10.743,10.743,0,0,1,72.285,8.4c.229.992.371,2.005.522,3.013a10.834,10.834,0,0,1,.071,1.28,14.175,14.175,0,0,1-.538,3.917,12.068,12.068,0,0,1-2.155,4.465,9.571,9.571,0,0,1-3.867,3.174c-.637.263-1.3.459-1.954.689-.037.013-.064.054-.132.114a1.9,1.9,0,0,0,.29.066,23.687,23.687,0,0,1,5.272.911,24.083,24.083,0,0,1,4.783,1.99,21.539,21.539,0,0,1,3.475,2.362,20.184,20.184,0,0,1,4.458,5.15,16.143,16.143,0,0,1,2.168,5.587c.118.661.231,1.323.351,2.006Z" transform="translate(-29.512 0)" fill="#406ca5"/>
    <path id="Path_355" data-name="Path 355" d="M43.151,52.8a6.672,6.672,0,0,1-2.891-1.4,10.464,10.464,0,0,1-3.517-5.981,9.876,9.876,0,0,1-.261-2.852,10.828,10.828,0,0,1,1.708-5.489,9.735,9.735,0,0,1,2.738-2.828A6.765,6.765,0,0,1,43.8,33.2a7.351,7.351,0,0,1,4,.636c.472.21.249.528.2.767a16.633,16.633,0,0,0-.16,4.039,12.512,12.512,0,0,0,.853,3.836A14,14,0,0,0,50.71,46.23a13.263,13.263,0,0,0,1.171,1.243.323.323,0,0,1,.083.451c-.342.566-.673,1.138-1.027,1.7a.65.65,0,0,1-.333.239,23.9,23.9,0,0,0-6.157,3.02.439.439,0,0,1-.12.038l-.288-.117-.234.179-.069-.011-.133-.044-.452-.127" transform="translate(-27.01 -24.548)" fill="#406ca5"/>
    <path id="Path_356" data-name="Path 356" d="M165.181,54.206l-1.573-.927a18.1,18.1,0,0,0-3.945-1.837,2.336,2.336,0,0,1-1.528-1.263c-.158-.319-.336-.63-.512-.94-.094-.165-.068-.265.076-.407a12.683,12.683,0,0,0,3.417-5.921,17.067,17.067,0,0,0,.5-2.3,12.488,12.488,0,0,0,.081-3.355c-.089-.593-.18-1.185-.248-1.781a.351.351,0,0,1,.175-.262,6.842,6.842,0,0,1,2.326-.732,7.164,7.164,0,0,1,3.473.463,6.78,6.78,0,0,1,2.924,2.1,16.877,16.877,0,0,1,1.483,2.17,9.3,9.3,0,0,1,1.069,3.321,13.548,13.548,0,0,1,.125,2.526,11.412,11.412,0,0,1-.88,3.794,10.052,10.052,0,0,1-2.049,3.106,8.045,8.045,0,0,1-3.908,2.215,4.891,4.891,0,0,1-.593.081c-.116-.178-.27-.1-.418-.061" transform="translate(-116.714 -25.508)" fill="#406ca5"/>
    <path id="Path_357" data-name="Path 357" d="M16.794,109.136l.234-.179.288.118c-.667.545-1.357,1.065-1.994,1.643s-1.263,1.229-1.872,1.865a15.578,15.578,0,0,0-3.115,4.733c-.417.987-.809,1.991-1.127,3.013a19.821,19.821,0,0,0-.45,2.247c-.056.3-.09.6-.138.924H0a7.586,7.586,0,0,1,.289-2.054,11.3,11.3,0,0,1,1.275-3.366,29.422,29.422,0,0,1,1.72-2.457,11.209,11.209,0,0,1,1.071-1.2,17.515,17.515,0,0,1,3.053-2.383,14.783,14.783,0,0,1,3.146-1.572c1.061-.357,2.14-.67,3.229-.928a20.682,20.682,0,0,1,2.138-.29c.24,0,.48.012.72,0,.051,0,.1-.08.148-.122" transform="translate(0 -80.706)" fill="#406ca5"/>
    <path id="Path_358" data-name="Path 358" d="M186.928,110.537c.148-.036.3-.117.418.061a.967.967,0,0,0,.261.121c1.006.133,2.021.21,3.016.395a18.112,18.112,0,0,1,5,1.678,19.166,19.166,0,0,1,3.541,2.394,16.185,16.185,0,0,1,3.465,4.218,13.055,13.055,0,0,1,1.5,4.1c.1.481.18.966.272,1.465h-8.753a15.68,15.68,0,0,0-.818-4.1,19.146,19.146,0,0,0-2.5-5,20.766,20.766,0,0,0-3.192-3.5c-.721-.624-1.469-1.218-2.2-1.825" transform="translate(-138.46 -81.84)" fill="#406ca5"/>
    <path id="Path_359" data-name="Path 359" d="M62.293,109.13c-.049.043-.1.12-.148.122-.239.011-.48,0-.72,0l.214-.3.452.127.133.044.069.011" transform="translate(-45.498 -80.7)" fill="#406ca5"/>
    <path id="Path_360" data-name="Path 360" d="M64.128,109.481,64,109.437l.133.044" transform="translate(-47.402 -81.062)" fill="#406ca5"/>
  </g>
</svg>
